<svg id="visual" viewBox="0 0 900 450" width="900" height="450" xmlns="http://www.w3.org/2000/svg" xmlns:xlink="http://www.w3.org/1999/xlink" version="1.1"><rect x="0" y="0" width="900" height="450" fill="#001220"></rect><defs><linearGradient id="grad1_0" x1="50%" y1="0%" x2="100%" y2="100%"><stop offset="10%" stop-color="#715df2" stop-opacity="1"></stop><stop offset="90%" stop-color="#715df2" stop-opacity="1"></stop></linearGradient></defs><defs><linearGradient id="grad1_1" x1="50%" y1="0%" x2="100%" y2="100%"><stop offset="10%" stop-color="#715df2" stop-opacity="1"></stop><stop offset="90%" stop-color="#001220" stop-opacity="1"></stop></linearGradient></defs><defs><linearGradient id="grad2_0" x1="0%" y1="0%" x2="50%" y2="100%"><stop offset="10%" stop-color="#715df2" stop-opacity="1"></stop><stop offset="90%" stop-color="#715df2" stop-opacity="1"></stop></linearGradient></defs><defs><linearGradient id="grad2_1" x1="0%" y1="0%" x2="50%" y2="100%"><stop offset="10%" stop-color="#001220" stop-opacity="1"></stop><stop offset="90%" stop-color="#715df2" stop-opacity="1"></stop></linearGradient></defs><g transform="translate(900, 0)"><path d="M0 315C-21.6 249.2 -43.1 183.4 -95.5 165.4C-147.9 147.4 -231.1 177.1 -272.8 157.5C-314.5 137.9 -314.8 68.9 -315 0L0 0Z" fill="#003f8a"></path><path d="M0 157.5C-10.8 124.6 -21.6 91.7 -47.7 82.7C-73.9 73.7 -115.5 88.6 -136.4 78.8C-157.3 68.9 -157.4 34.5 -157.5 0L0 0Z" fill="#715df2"></path></g><g transform="translate(0, 450)"><path d="M0 -315C50.1 -298.6 100.2 -282.3 149 -258.1C197.8 -233.9 245.3 -201.8 272.8 -157.5C300.3 -113.2 307.6 -56.6 315 0L0 0Z" fill="#003f8a"></path><path d="M0 -157.5C25 -149.3 50.1 -141.1 74.5 -129C98.9 -116.9 122.7 -100.9 136.4 -78.8C150.1 -56.6 153.8 -28.3 157.5 0L0 0Z" fill="#715df2"></path></g></svg>